%TF.GenerationSoftware,KiCad,Pcbnew,7.0.11+dfsg-1build4*%
%TF.CreationDate,2024-10-06T17:58:57+09:00*%
%TF.ProjectId,NotEnoughCompromises,4e6f7445-6e6f-4756-9768-436f6d70726f,rev?*%
%TF.SameCoordinates,Original*%
%TF.FileFunction,Profile,NP*%
%FSLAX46Y46*%
G04 Gerber Fmt 4.6, Leading zero omitted, Abs format (unit mm)*
G04 Created by KiCad (PCBNEW 7.0.11+dfsg-1build4) date 2024-10-06 17:58:57*
%MOMM*%
%LPD*%
G01*
G04 APERTURE LIST*
%TA.AperFunction,Profile*%
%ADD10C,0.100000*%
%TD*%
G04 APERTURE END LIST*
D10*
X227290000Y-28950000D02*
X67350000Y-28950000D01*
X72430000Y-128235000D02*
G75*
G03*
X69890000Y-128235000I-1270000J0D01*
G01*
X93430000Y-84830000D02*
X93430000Y-82830000D01*
X72430000Y-60235000D02*
X72430000Y-65830000D01*
X171860000Y-84830000D02*
X171860000Y-89830000D01*
X93430000Y-82830000D02*
X88780000Y-82830000D01*
X191560000Y-72830000D02*
X191560000Y-67830000D01*
X188860000Y-106830000D02*
X191560000Y-106830000D01*
X86080000Y-111830000D02*
X86080000Y-116830000D01*
X105780000Y-111830000D02*
X103080000Y-111830000D01*
X174560000Y-116830000D02*
X174560000Y-111830000D01*
X208560000Y-60830000D02*
X205860000Y-60830000D01*
X205860000Y-94830000D02*
X205860000Y-99830000D01*
X81430000Y-84830000D02*
X86080000Y-84830000D01*
X103080000Y-123830000D02*
X105780000Y-123830000D01*
X98430000Y-48830000D02*
X98430000Y-50830000D01*
X174560000Y-84830000D02*
X179210000Y-84830000D01*
X218210000Y-48830000D02*
X222210000Y-48830000D01*
X82620000Y-149970000D02*
X71630000Y-149970000D01*
X103080000Y-60830000D02*
X103080000Y-65830000D01*
X122780000Y-84830000D02*
X127430000Y-84830000D01*
X110430000Y-67830000D02*
X110430000Y-65830000D01*
X122430000Y-140970000D02*
X122430000Y-136170000D01*
X208560000Y-84830000D02*
X213210000Y-84830000D01*
X86080000Y-72830000D02*
X88780000Y-72830000D01*
X115430000Y-82830000D02*
X115430000Y-84830000D01*
X174560000Y-101830000D02*
X179210000Y-101830000D01*
X149291000Y-96377000D02*
X153670000Y-96377000D01*
X171860000Y-111830000D02*
X171860000Y-116830000D01*
X212370000Y-31490000D02*
G75*
G03*
X212370000Y-34030000I0J-1270000D01*
G01*
X179210000Y-84830000D02*
X179210000Y-82830000D01*
X208560000Y-94830000D02*
X205860000Y-94830000D01*
X154870000Y-149970000D02*
X154870000Y-152510000D01*
X86080000Y-38830000D02*
X88780000Y-38830000D01*
X126590000Y-136170000D02*
X137230000Y-136170000D01*
X223010000Y-149970000D02*
X212020000Y-149970000D01*
X86080000Y-101830000D02*
X86080000Y-106830000D01*
X223010000Y-136170000D02*
X223010000Y-149970000D01*
X222210000Y-56425000D02*
X222210000Y-50830000D01*
X205860000Y-34030000D02*
X191560000Y-34030000D01*
X196210000Y-48830000D02*
X191560000Y-48830000D01*
X76430000Y-84830000D02*
X72430000Y-84830000D01*
X86430000Y-152510000D02*
X139770000Y-152510000D01*
X69890000Y-124425000D02*
G75*
G03*
X72430000Y-124425000I1270000J0D01*
G01*
X81430000Y-50830000D02*
X86080000Y-50830000D01*
X72430000Y-124425000D02*
X72430000Y-118830000D01*
X153670000Y-124425000D02*
X153670000Y-111830000D01*
X86080000Y-89830000D02*
X88780000Y-89830000D01*
X174560000Y-99830000D02*
X174560000Y-94830000D01*
X72430000Y-82830000D02*
X76430000Y-82830000D01*
X105430000Y-149970000D02*
X105430000Y-145970000D01*
X188860000Y-118830000D02*
X188860000Y-123830000D01*
X205860000Y-67830000D02*
X205860000Y-72830000D01*
X222210000Y-67830000D02*
X218210000Y-67830000D01*
X86080000Y-118830000D02*
X86080000Y-123830000D01*
X171860000Y-101830000D02*
X171860000Y-106830000D01*
X191560000Y-99830000D02*
X191560000Y-94830000D01*
X76430000Y-65830000D02*
X76430000Y-67830000D01*
X86430000Y-149970000D02*
G75*
G03*
X86430000Y-152510000I0J-1270000D01*
G01*
X208560000Y-34030000D02*
X208560000Y-38830000D01*
X120080000Y-77830000D02*
X120080000Y-82830000D01*
X157410000Y-146160000D02*
X157410000Y-136170000D01*
X137230000Y-149970000D02*
X122430000Y-149970000D01*
X105780000Y-67830000D02*
X110430000Y-67830000D01*
X81430000Y-118830000D02*
X86080000Y-118830000D01*
X205860000Y-123830000D02*
X208560000Y-123830000D01*
X103080000Y-67830000D02*
X103080000Y-72830000D01*
X138430000Y-133630000D02*
X126590000Y-133630000D01*
X88780000Y-116830000D02*
X88780000Y-111830000D01*
X184210000Y-50830000D02*
X188860000Y-50830000D01*
X208560000Y-55830000D02*
X208560000Y-50830000D01*
X105780000Y-60830000D02*
X103080000Y-60830000D01*
X167210000Y-84830000D02*
X171860000Y-84830000D01*
X93430000Y-99830000D02*
X88780000Y-99830000D01*
X201210000Y-101830000D02*
X205860000Y-101830000D01*
X110430000Y-84830000D02*
X110430000Y-82830000D01*
X71630000Y-136170000D02*
X82270000Y-136170000D01*
X208210000Y-152510000D02*
G75*
G03*
X208210000Y-149970000I0J1270000D01*
G01*
X105780000Y-77830000D02*
X103080000Y-77830000D01*
X140970000Y-31490000D02*
X140970000Y-73425000D01*
X206210000Y-140970000D02*
X208210000Y-140970000D01*
X149291000Y-111830000D02*
X149291000Y-96377000D01*
X127430000Y-116830000D02*
X122780000Y-116830000D01*
X103080000Y-55830000D02*
X105780000Y-55830000D01*
X110430000Y-101830000D02*
X110430000Y-99830000D01*
X206210000Y-136170000D02*
X206210000Y-140970000D01*
X82620000Y-152510000D02*
G75*
G03*
X82620000Y-149970000I0J1270000D01*
G01*
X184210000Y-118830000D02*
X188860000Y-118830000D01*
X138430000Y-110610000D02*
X144079000Y-107821000D01*
X153670000Y-124425000D02*
G75*
G03*
X156210000Y-124425000I1270000J0D01*
G01*
X205860000Y-55830000D02*
X208560000Y-55830000D01*
X218210000Y-84830000D02*
X218210000Y-82830000D01*
X88780000Y-50830000D02*
X93430000Y-50830000D01*
X105780000Y-82830000D02*
X105780000Y-77830000D01*
X98430000Y-116830000D02*
X98430000Y-118830000D01*
X86080000Y-43830000D02*
X86080000Y-48830000D01*
X82270000Y-34030000D02*
G75*
G03*
X82270000Y-31490000I0J1270000D01*
G01*
X174210000Y-145970000D02*
X172210000Y-145970000D01*
X174560000Y-106830000D02*
X174560000Y-101830000D01*
X105780000Y-55830000D02*
X105780000Y-50830000D01*
X208560000Y-72830000D02*
X208560000Y-67830000D01*
X76430000Y-99830000D02*
X76430000Y-101830000D01*
X88430000Y-145970000D02*
X86430000Y-145970000D01*
X208560000Y-38830000D02*
X205860000Y-38830000D01*
X86080000Y-67830000D02*
X86080000Y-72830000D01*
X205860000Y-38830000D02*
X205860000Y-34030000D01*
X191560000Y-133630000D02*
X205860000Y-133630000D01*
X105780000Y-106830000D02*
X105780000Y-101830000D01*
X122780000Y-118830000D02*
X127430000Y-118830000D01*
X213210000Y-99830000D02*
X208560000Y-99830000D01*
X145349000Y-111830000D02*
X145349000Y-96377000D01*
X103080000Y-38830000D02*
X105780000Y-38830000D01*
X67350000Y-155050000D02*
X227290000Y-155050000D01*
X86080000Y-128830000D02*
X88780000Y-128830000D01*
X205860000Y-106830000D02*
X208560000Y-106830000D01*
X188860000Y-94830000D02*
X188860000Y-99830000D01*
X86080000Y-82830000D02*
X81430000Y-82830000D01*
X103080000Y-128830000D02*
X105780000Y-128830000D01*
X191560000Y-50830000D02*
X196210000Y-50830000D01*
X86430000Y-140970000D02*
X88430000Y-140970000D01*
X191560000Y-82830000D02*
X191560000Y-77830000D01*
X157410000Y-136170000D02*
X168050000Y-136170000D01*
X218210000Y-118830000D02*
X218210000Y-116830000D01*
X88780000Y-72830000D02*
X88780000Y-67830000D01*
X88780000Y-43830000D02*
X86080000Y-43830000D01*
X167210000Y-82830000D02*
X167210000Y-84830000D01*
X208560000Y-89830000D02*
X208560000Y-84830000D01*
X115430000Y-118830000D02*
X120080000Y-118830000D01*
X110430000Y-99830000D02*
X105780000Y-99830000D01*
X205860000Y-50830000D02*
X205860000Y-55830000D01*
X188860000Y-50830000D02*
X188860000Y-55830000D01*
X88780000Y-67830000D02*
X93430000Y-67830000D01*
X103080000Y-50830000D02*
X103080000Y-55830000D01*
X205860000Y-101830000D02*
X205860000Y-106830000D01*
X174210000Y-140970000D02*
X174210000Y-136170000D01*
X188860000Y-38830000D02*
X188860000Y-34030000D01*
X76430000Y-48830000D02*
X76430000Y-50830000D01*
X115430000Y-101830000D02*
X120080000Y-101830000D01*
X201210000Y-99830000D02*
X201210000Y-101830000D01*
X86430000Y-136170000D02*
X86430000Y-140970000D01*
X212370000Y-133630000D02*
G75*
G03*
X212370000Y-136170000I0J-1270000D01*
G01*
X191560000Y-43830000D02*
X188860000Y-43830000D01*
X72430000Y-56425000D02*
X72430000Y-50830000D01*
X189210000Y-149970000D02*
X174210000Y-149970000D01*
X191560000Y-84830000D02*
X196210000Y-84830000D01*
X88780000Y-123830000D02*
X88780000Y-118830000D01*
X201210000Y-48830000D02*
X201210000Y-50830000D01*
X81430000Y-99830000D02*
X81430000Y-101830000D01*
X208560000Y-136170000D02*
X208210000Y-136170000D01*
X188860000Y-123830000D02*
X191560000Y-123830000D01*
X122780000Y-94830000D02*
X120080000Y-94830000D01*
X122780000Y-89830000D02*
X122780000Y-84830000D01*
X157560000Y-123830000D02*
X156210000Y-123830000D01*
X154870000Y-152510000D02*
X208210000Y-152510000D01*
X82270000Y-133630000D02*
X72430000Y-133630000D01*
X201210000Y-67830000D02*
X205860000Y-67830000D01*
X110430000Y-82830000D02*
X105780000Y-82830000D01*
X88780000Y-99830000D02*
X88780000Y-94830000D01*
X110430000Y-118830000D02*
X110430000Y-116830000D01*
X222210000Y-101830000D02*
X218210000Y-101830000D01*
X208560000Y-99830000D02*
X208560000Y-94830000D01*
X69890000Y-31490000D02*
X69890000Y-56425000D01*
X172210000Y-136170000D02*
X172210000Y-140970000D01*
X213210000Y-116830000D02*
X208560000Y-116830000D01*
X140970000Y-124425000D02*
X140970000Y-111830000D01*
X160020000Y-31490000D02*
G75*
G03*
X160020000Y-34030000I0J-1270000D01*
G01*
X138430000Y-124425000D02*
G75*
G03*
X140970000Y-124425000I1270000J0D01*
G01*
X120080000Y-118830000D02*
X120080000Y-123830000D01*
X184210000Y-101830000D02*
X188860000Y-101830000D01*
X139770000Y-149970000D02*
G75*
G03*
X137230000Y-149970000I-1270000J0D01*
G01*
X110430000Y-50830000D02*
X110430000Y-48830000D01*
X188860000Y-67830000D02*
X188860000Y-72830000D01*
X188860000Y-111830000D02*
X188860000Y-116830000D01*
X212370000Y-136170000D02*
X223010000Y-136170000D01*
X156210000Y-133630000D02*
X168050000Y-133630000D01*
X179210000Y-82830000D02*
X174560000Y-82830000D01*
X86080000Y-94830000D02*
X86080000Y-99830000D01*
X88780000Y-128830000D02*
X88780000Y-133630000D01*
X172210000Y-145970000D02*
X172210000Y-149970000D01*
X72430000Y-48830000D02*
X72430000Y-34030000D01*
X205860000Y-84830000D02*
X205860000Y-89830000D01*
X105780000Y-84830000D02*
X110430000Y-84830000D01*
X171860000Y-77830000D02*
X171860000Y-82830000D01*
X184210000Y-82830000D02*
X184210000Y-84830000D01*
X105430000Y-140970000D02*
X105430000Y-136170000D01*
X67350000Y-28950000D02*
X67350000Y-155050000D01*
X86080000Y-48830000D02*
X81430000Y-48830000D01*
X153670000Y-96377000D02*
X153670000Y-77235000D01*
X138430000Y-128235000D02*
X138430000Y-133630000D01*
X88780000Y-38830000D02*
X88780000Y-34030000D01*
X174210000Y-136170000D02*
X189210000Y-136170000D01*
X156210000Y-34030000D02*
X156210000Y-73425000D01*
X72430000Y-48830000D02*
X76430000Y-48830000D01*
X205860000Y-133630000D02*
X205860000Y-128830000D01*
X120080000Y-99830000D02*
X115430000Y-99830000D01*
X189210000Y-140970000D02*
X191210000Y-140970000D01*
X179210000Y-101830000D02*
X179210000Y-99830000D01*
X86080000Y-34030000D02*
X86080000Y-38830000D01*
X120430000Y-140970000D02*
X122430000Y-140970000D01*
X145349000Y-96377000D02*
X140970000Y-96377000D01*
X88780000Y-106830000D02*
X88780000Y-101830000D01*
X174560000Y-111830000D02*
X171860000Y-111830000D01*
X171860000Y-116830000D02*
X167210000Y-116830000D01*
X137080000Y-118830000D02*
X137080000Y-123830000D01*
X103080000Y-106830000D02*
X105780000Y-106830000D01*
X122430000Y-145970000D02*
X120430000Y-145970000D01*
X86080000Y-136170000D02*
X86430000Y-136170000D01*
X103080000Y-77830000D02*
X103080000Y-82830000D01*
X98430000Y-65830000D02*
X98430000Y-67830000D01*
X213210000Y-65830000D02*
X208560000Y-65830000D01*
X154870000Y-146160000D02*
G75*
G03*
X157410000Y-146160000I1270000J0D01*
G01*
X191210000Y-136170000D02*
X206210000Y-136170000D01*
X208560000Y-106830000D02*
X208560000Y-101830000D01*
X103080000Y-72830000D02*
X105780000Y-72830000D01*
X72430000Y-116830000D02*
X72430000Y-101830000D01*
X208560000Y-50830000D02*
X213210000Y-50830000D01*
X139770000Y-152510000D02*
X139770000Y-149970000D01*
X174560000Y-118830000D02*
X179210000Y-118830000D01*
X86080000Y-84830000D02*
X86080000Y-89830000D01*
X224750000Y-128235000D02*
X224750000Y-152510000D01*
X86080000Y-123830000D02*
X88780000Y-123830000D01*
X72430000Y-60235000D02*
G75*
G03*
X69890000Y-60235000I-1270000J0D01*
G01*
X168050000Y-136170000D02*
G75*
G03*
X168050000Y-133630000I0J1270000D01*
G01*
X184210000Y-48830000D02*
X184210000Y-50830000D01*
X191210000Y-140970000D02*
X191210000Y-136170000D01*
X188860000Y-99830000D02*
X184210000Y-99830000D01*
X179210000Y-99830000D02*
X174560000Y-99830000D01*
X88780000Y-101830000D02*
X93430000Y-101830000D01*
X171860000Y-106830000D02*
X174560000Y-106830000D01*
X88780000Y-65830000D02*
X88780000Y-60830000D01*
X171860000Y-89830000D02*
X174560000Y-89830000D01*
X72430000Y-34030000D02*
X82270000Y-34030000D01*
X191560000Y-101830000D02*
X196210000Y-101830000D01*
X222210000Y-116830000D02*
X222210000Y-101830000D01*
X115430000Y-99830000D02*
X115430000Y-101830000D01*
X196210000Y-65830000D02*
X191560000Y-65830000D01*
X86080000Y-133630000D02*
G75*
G03*
X86080000Y-136170000I0J-1270000D01*
G01*
X93430000Y-65830000D02*
X88780000Y-65830000D01*
X120080000Y-111830000D02*
X120080000Y-116830000D01*
X81430000Y-101830000D02*
X86080000Y-101830000D01*
X93430000Y-116830000D02*
X88780000Y-116830000D01*
X98430000Y-82830000D02*
X98430000Y-84830000D01*
X184210000Y-65830000D02*
X184210000Y-67830000D01*
X167210000Y-118830000D02*
X171860000Y-118830000D01*
X88780000Y-111830000D02*
X86080000Y-111830000D01*
X162210000Y-116830000D02*
X162210000Y-118830000D01*
X98430000Y-99830000D02*
X98430000Y-101830000D01*
X138430000Y-31490000D02*
G75*
G03*
X138430000Y-34030000I0J-1270000D01*
G01*
X205860000Y-48830000D02*
X201210000Y-48830000D01*
X171860000Y-118830000D02*
X171860000Y-123830000D01*
X213210000Y-48830000D02*
X208560000Y-48830000D01*
X224750000Y-60235000D02*
X224750000Y-124425000D01*
X191560000Y-89830000D02*
X191560000Y-84830000D01*
X208560000Y-67830000D02*
X213210000Y-67830000D01*
X188860000Y-82830000D02*
X184210000Y-82830000D01*
X213210000Y-84830000D02*
X213210000Y-82830000D01*
X103080000Y-89830000D02*
X105780000Y-89830000D01*
X88780000Y-94830000D02*
X86080000Y-94830000D01*
X86080000Y-60830000D02*
X86080000Y-65830000D01*
X134620000Y-34030000D02*
G75*
G03*
X134620000Y-31490000I0J1270000D01*
G01*
X86430000Y-145970000D02*
X86430000Y-149970000D01*
X188860000Y-77830000D02*
X188860000Y-82830000D01*
X140970000Y-111830000D02*
X145349000Y-111830000D01*
X138430000Y-110610000D02*
X138430000Y-111830000D01*
X160020000Y-31490000D02*
X208560000Y-31490000D01*
X179210000Y-118830000D02*
X179210000Y-116830000D01*
X208210000Y-145970000D02*
X206210000Y-145970000D01*
X188860000Y-89830000D02*
X191560000Y-89830000D01*
X227290000Y-155050000D02*
X227290000Y-28950000D01*
X105780000Y-48830000D02*
X105780000Y-43830000D01*
X184210000Y-84830000D02*
X188860000Y-84830000D01*
X205860000Y-99830000D02*
X201210000Y-99830000D01*
X88780000Y-118830000D02*
X93430000Y-118830000D01*
X201210000Y-50830000D02*
X205860000Y-50830000D01*
X184210000Y-99830000D02*
X184210000Y-101830000D01*
X201210000Y-118830000D02*
X205860000Y-118830000D01*
X201210000Y-116830000D02*
X201210000Y-118830000D01*
X93430000Y-118830000D02*
X93430000Y-116830000D01*
X103080000Y-82830000D02*
X98430000Y-82830000D01*
X201210000Y-82830000D02*
X201210000Y-84830000D01*
X153670000Y-73425000D02*
G75*
G03*
X156210000Y-73425000I1270000J0D01*
G01*
X140970000Y-96377000D02*
X140970000Y-77235000D01*
X222210000Y-128235000D02*
X222210000Y-133630000D01*
X120080000Y-82830000D02*
X115430000Y-82830000D01*
X103430000Y-145970000D02*
X103430000Y-149970000D01*
X72430000Y-82830000D02*
X72430000Y-67830000D01*
X137080000Y-111830000D02*
X137080000Y-116830000D01*
X208560000Y-43830000D02*
X205860000Y-43830000D01*
X157560000Y-111830000D02*
X157560000Y-116830000D01*
X69890000Y-56425000D02*
G75*
G03*
X72430000Y-56425000I1270000J0D01*
G01*
X122430000Y-149970000D02*
X122430000Y-145970000D01*
X93430000Y-50830000D02*
X93430000Y-48830000D01*
X213210000Y-101830000D02*
X213210000Y-99830000D01*
X110430000Y-116830000D02*
X105780000Y-116830000D01*
X138430000Y-73425000D02*
G75*
G03*
X140970000Y-73425000I1270000J0D01*
G01*
X103080000Y-48830000D02*
X98430000Y-48830000D01*
X208560000Y-65830000D02*
X208560000Y-60830000D01*
X208560000Y-82830000D02*
X208560000Y-77830000D01*
X191560000Y-60830000D02*
X188860000Y-60830000D01*
X174560000Y-94830000D02*
X171860000Y-94830000D01*
X206210000Y-149970000D02*
X191210000Y-149970000D01*
X137230000Y-146160000D02*
G75*
G03*
X139770000Y-146160000I1270000J0D01*
G01*
X205860000Y-82830000D02*
X201210000Y-82830000D01*
X222210000Y-82830000D02*
X222210000Y-67830000D01*
X88780000Y-82830000D02*
X88780000Y-77830000D01*
X103080000Y-34030000D02*
X103080000Y-38830000D01*
X86080000Y-31490000D02*
X134620000Y-31490000D01*
X105780000Y-94830000D02*
X103080000Y-94830000D01*
X138430000Y-111830000D02*
X137080000Y-111830000D01*
X103430000Y-140970000D02*
X105430000Y-140970000D01*
X120080000Y-84830000D02*
X120080000Y-89830000D01*
X205860000Y-116830000D02*
X201210000Y-116830000D01*
X208560000Y-77830000D02*
X205860000Y-77830000D01*
X222210000Y-56425000D02*
G75*
G03*
X224750000Y-56425000I1270000J0D01*
G01*
X105780000Y-38830000D02*
X105780000Y-34030000D01*
X189210000Y-136170000D02*
X189210000Y-140970000D01*
X201210000Y-65830000D02*
X201210000Y-67830000D01*
X205860000Y-128830000D02*
X208560000Y-128830000D01*
X191560000Y-34030000D02*
X191560000Y-38830000D01*
X86080000Y-116830000D02*
X81430000Y-116830000D01*
X218210000Y-67830000D02*
X218210000Y-65830000D01*
X191210000Y-145970000D02*
X189210000Y-145970000D01*
X138430000Y-34030000D02*
X138430000Y-73425000D01*
X88780000Y-84830000D02*
X93430000Y-84830000D01*
X86080000Y-99830000D02*
X81430000Y-99830000D01*
X191560000Y-123830000D02*
X191560000Y-118830000D01*
X208560000Y-34030000D02*
G75*
G03*
X208560000Y-31490000I0J1270000D01*
G01*
X218210000Y-116830000D02*
X222210000Y-116830000D01*
X189210000Y-145970000D02*
X189210000Y-149970000D01*
X122780000Y-77830000D02*
X120080000Y-77830000D01*
X206210000Y-145970000D02*
X206210000Y-149970000D01*
X188860000Y-34030000D02*
X160020000Y-34030000D01*
X137080000Y-116830000D02*
X132430000Y-116830000D01*
X156210000Y-128235000D02*
G75*
G03*
X153670000Y-128235000I-1270000J0D01*
G01*
X120080000Y-94830000D02*
X120080000Y-99830000D01*
X188860000Y-101830000D02*
X188860000Y-106830000D01*
X218210000Y-65830000D02*
X222210000Y-65830000D01*
X98430000Y-101830000D02*
X103080000Y-101830000D01*
X88430000Y-136170000D02*
X103430000Y-136170000D01*
X191560000Y-55830000D02*
X191560000Y-50830000D01*
X208210000Y-140970000D02*
X208210000Y-136170000D01*
X127430000Y-99830000D02*
X122780000Y-99830000D01*
X103080000Y-43830000D02*
X103080000Y-48830000D01*
X105780000Y-43830000D02*
X103080000Y-43830000D01*
X88780000Y-55830000D02*
X88780000Y-50830000D01*
X86080000Y-31490000D02*
G75*
G03*
X86080000Y-34030000I0J-1270000D01*
G01*
X105780000Y-99830000D02*
X105780000Y-94830000D01*
X93430000Y-67830000D02*
X93430000Y-65830000D01*
X171860000Y-128830000D02*
X174560000Y-128830000D01*
X156210000Y-77235000D02*
X156210000Y-96377000D01*
X76430000Y-50830000D02*
X72430000Y-50830000D01*
X153670000Y-111830000D02*
X149291000Y-111830000D01*
X76430000Y-116830000D02*
X76430000Y-118830000D01*
X171860000Y-136170000D02*
X172210000Y-136170000D01*
X171860000Y-133630000D02*
G75*
G03*
X171860000Y-136170000I0J-1270000D01*
G01*
X156210000Y-111830000D02*
X157560000Y-111830000D01*
X191560000Y-77830000D02*
X188860000Y-77830000D01*
X120430000Y-145970000D02*
X120430000Y-149970000D01*
X174210000Y-149970000D02*
X174210000Y-145970000D01*
X88430000Y-140970000D02*
X88430000Y-136170000D01*
X212370000Y-31490000D02*
X224750000Y-31490000D01*
X222210000Y-99830000D02*
X222210000Y-84830000D01*
X174560000Y-77830000D02*
X171860000Y-77830000D01*
X137080000Y-123830000D02*
X138430000Y-123830000D01*
X208560000Y-116830000D02*
X208560000Y-111830000D01*
X103080000Y-133630000D02*
X88780000Y-133630000D01*
X188860000Y-133630000D02*
X188860000Y-128830000D01*
X120080000Y-133630000D02*
X120080000Y-128830000D01*
X205860000Y-43830000D02*
X205860000Y-48830000D01*
X122780000Y-116830000D02*
X122780000Y-111830000D01*
X105430000Y-145970000D02*
X103430000Y-145970000D01*
X188860000Y-43830000D02*
X188860000Y-48830000D01*
X167210000Y-101830000D02*
X171860000Y-101830000D01*
X122780000Y-128830000D02*
X122780000Y-133630000D01*
X120080000Y-133630000D02*
X105780000Y-133630000D01*
X196210000Y-101830000D02*
X196210000Y-99830000D01*
X71630000Y-149970000D02*
X71630000Y-136170000D01*
X188860000Y-55830000D02*
X191560000Y-55830000D01*
X69890000Y-60235000D02*
X69890000Y-124425000D01*
X171860000Y-123830000D02*
X174560000Y-123830000D01*
X172210000Y-149970000D02*
X157410000Y-149970000D01*
X86080000Y-50830000D02*
X86080000Y-55830000D01*
X191560000Y-128830000D02*
X191560000Y-133630000D01*
X86080000Y-55830000D02*
X88780000Y-55830000D01*
X191560000Y-94830000D02*
X188860000Y-94830000D01*
X208560000Y-123830000D02*
X208560000Y-118830000D01*
X122780000Y-123830000D02*
X122780000Y-118830000D01*
X208560000Y-118830000D02*
X213210000Y-118830000D01*
X88780000Y-48830000D02*
X88780000Y-43830000D01*
X144079000Y-107821000D02*
X138430000Y-96377000D01*
X105780000Y-50830000D02*
X110430000Y-50830000D01*
X105780000Y-72830000D02*
X105780000Y-67830000D01*
X120080000Y-101830000D02*
X120080000Y-106830000D01*
X156210000Y-31490000D02*
X153670000Y-31490000D01*
X76430000Y-82830000D02*
X76430000Y-84830000D01*
X157560000Y-116830000D02*
X162210000Y-116830000D01*
X122780000Y-136170000D02*
G75*
G03*
X122780000Y-133630000I0J1270000D01*
G01*
X205860000Y-65830000D02*
X201210000Y-65830000D01*
X88430000Y-149970000D02*
X88430000Y-145970000D01*
X205860000Y-111830000D02*
X205860000Y-116830000D01*
X86080000Y-133630000D02*
X86080000Y-128830000D01*
X81430000Y-48830000D02*
X81430000Y-50830000D01*
X127430000Y-84830000D02*
X127430000Y-82830000D01*
X154870000Y-136170000D02*
X153670000Y-136170000D01*
X103080000Y-99830000D02*
X98430000Y-99830000D01*
X127430000Y-101830000D02*
X127430000Y-99830000D01*
X156210000Y-34030000D02*
G75*
G03*
X156210000Y-31490000I0J1270000D01*
G01*
X208210000Y-149970000D02*
X208210000Y-145970000D01*
X103080000Y-111830000D02*
X103080000Y-116830000D01*
X110430000Y-48830000D02*
X105780000Y-48830000D01*
X137230000Y-136170000D02*
X137230000Y-146160000D01*
X76430000Y-67830000D02*
X72430000Y-67830000D01*
X81430000Y-67830000D02*
X86080000Y-67830000D01*
X205860000Y-60830000D02*
X205860000Y-65830000D01*
X138430000Y-123830000D02*
X138430000Y-124425000D01*
X103080000Y-118830000D02*
X103080000Y-123830000D01*
X120080000Y-89830000D02*
X122780000Y-89830000D01*
X105780000Y-34030000D02*
X134620000Y-34030000D01*
X115430000Y-116830000D02*
X115430000Y-118830000D01*
X171860000Y-94830000D02*
X171860000Y-99830000D01*
X167210000Y-99830000D02*
X167210000Y-101830000D01*
X86080000Y-65830000D02*
X81430000Y-65830000D01*
X174560000Y-89830000D02*
X174560000Y-84830000D01*
X120080000Y-106830000D02*
X122780000Y-106830000D01*
X213210000Y-67830000D02*
X213210000Y-65830000D01*
X120080000Y-128830000D02*
X122780000Y-128830000D01*
X122780000Y-82830000D02*
X122780000Y-77830000D01*
X103080000Y-133630000D02*
X103080000Y-128830000D01*
X212370000Y-133630000D02*
X222210000Y-133630000D01*
X122780000Y-106830000D02*
X122780000Y-101830000D01*
X188860000Y-65830000D02*
X184210000Y-65830000D01*
X188860000Y-48830000D02*
X184210000Y-48830000D01*
X196210000Y-118830000D02*
X196210000Y-116830000D01*
X105780000Y-118830000D02*
X110430000Y-118830000D01*
X174560000Y-82830000D02*
X174560000Y-77830000D01*
X115430000Y-84830000D02*
X120080000Y-84830000D01*
X81430000Y-82830000D02*
X81430000Y-84830000D01*
X205860000Y-72830000D02*
X208560000Y-72830000D01*
X208560000Y-111830000D02*
X205860000Y-111830000D01*
X191560000Y-65830000D02*
X191560000Y-60830000D01*
X174560000Y-123830000D02*
X174560000Y-118830000D01*
X167210000Y-116830000D02*
X167210000Y-118830000D01*
X72430000Y-116830000D02*
X76430000Y-116830000D01*
X191560000Y-106830000D02*
X191560000Y-101830000D01*
X88780000Y-77830000D02*
X86080000Y-77830000D01*
X103080000Y-116830000D02*
X98430000Y-116830000D01*
X218210000Y-101830000D02*
X218210000Y-99830000D01*
X93430000Y-101830000D02*
X93430000Y-99830000D01*
X154870000Y-146160000D02*
X154870000Y-136170000D01*
X105780000Y-128830000D02*
X105780000Y-133630000D01*
X191560000Y-48830000D02*
X191560000Y-43830000D01*
X76430000Y-101830000D02*
X72430000Y-101830000D01*
X153670000Y-31490000D02*
X153670000Y-73425000D01*
X224750000Y-128235000D02*
G75*
G03*
X222210000Y-128235000I-1270000J0D01*
G01*
X208560000Y-48830000D02*
X208560000Y-43830000D01*
X120080000Y-123830000D02*
X122780000Y-123830000D01*
X188860000Y-60830000D02*
X188860000Y-65830000D01*
X120430000Y-136170000D02*
X120430000Y-140970000D01*
X76430000Y-118830000D02*
X72430000Y-118830000D01*
X196210000Y-99830000D02*
X191560000Y-99830000D01*
X82270000Y-31490000D02*
X69890000Y-31490000D01*
X162210000Y-118830000D02*
X157560000Y-118830000D01*
X105780000Y-65830000D02*
X105780000Y-60830000D01*
X174560000Y-133630000D02*
X188860000Y-133630000D01*
X122430000Y-136170000D02*
X122780000Y-136170000D01*
X156210000Y-123830000D02*
X156210000Y-124425000D01*
X105780000Y-123830000D02*
X105780000Y-118830000D01*
X208560000Y-128830000D02*
X208560000Y-133630000D01*
X171860000Y-99830000D02*
X167210000Y-99830000D01*
X132430000Y-116830000D02*
X132430000Y-118830000D01*
X205860000Y-118830000D02*
X205860000Y-123830000D01*
X140970000Y-136170000D02*
X140970000Y-128235000D01*
X191560000Y-67830000D02*
X196210000Y-67830000D01*
X98430000Y-118830000D02*
X103080000Y-118830000D01*
X179210000Y-116830000D02*
X174560000Y-116830000D01*
X218210000Y-82830000D02*
X222210000Y-82830000D01*
X122780000Y-99830000D02*
X122780000Y-94830000D01*
X196210000Y-84830000D02*
X196210000Y-82830000D01*
X208560000Y-101830000D02*
X213210000Y-101830000D01*
X157560000Y-118830000D02*
X157560000Y-123830000D01*
X105780000Y-101830000D02*
X110430000Y-101830000D01*
X156210000Y-110610000D02*
X150561000Y-107821000D01*
X222210000Y-118830000D02*
X218210000Y-118830000D01*
X86080000Y-77830000D02*
X86080000Y-82830000D01*
X208560000Y-136170000D02*
G75*
G03*
X208560000Y-133630000I0J1270000D01*
G01*
X191560000Y-116830000D02*
X191560000Y-111830000D01*
X156210000Y-111830000D02*
X156210000Y-110610000D01*
X201210000Y-84830000D02*
X205860000Y-84830000D01*
X222210000Y-124425000D02*
X222210000Y-118830000D01*
X213210000Y-82830000D02*
X208560000Y-82830000D01*
X205860000Y-89830000D02*
X208560000Y-89830000D01*
X212020000Y-149970000D02*
G75*
G03*
X212020000Y-152510000I0J-1270000D01*
G01*
X196210000Y-116830000D02*
X191560000Y-116830000D01*
X103430000Y-136170000D02*
X103430000Y-140970000D01*
X184210000Y-67830000D02*
X188860000Y-67830000D01*
X191560000Y-111830000D02*
X188860000Y-111830000D01*
X88780000Y-60830000D02*
X86080000Y-60830000D01*
X188860000Y-84830000D02*
X188860000Y-89830000D01*
X174560000Y-128830000D02*
X174560000Y-133630000D01*
X224750000Y-152510000D02*
X212020000Y-152510000D01*
X69890000Y-152510000D02*
X82620000Y-152510000D01*
X127430000Y-82830000D02*
X122780000Y-82830000D01*
X105780000Y-89830000D02*
X105780000Y-84830000D01*
X224750000Y-31490000D02*
X224750000Y-56425000D01*
X69890000Y-128235000D02*
X69890000Y-152510000D01*
X196210000Y-50830000D02*
X196210000Y-48830000D01*
X156210000Y-128235000D02*
X156210000Y-133630000D01*
X81430000Y-116830000D02*
X81430000Y-118830000D01*
X86080000Y-106830000D02*
X88780000Y-106830000D01*
X127430000Y-118830000D02*
X127430000Y-116830000D01*
X213210000Y-50830000D02*
X213210000Y-48830000D01*
X122780000Y-101830000D02*
X127430000Y-101830000D01*
X88780000Y-89830000D02*
X88780000Y-84830000D01*
X93430000Y-48830000D02*
X88780000Y-48830000D01*
X218210000Y-50830000D02*
X218210000Y-48830000D01*
X172210000Y-140970000D02*
X174210000Y-140970000D01*
X140970000Y-77235000D02*
G75*
G03*
X138430000Y-77235000I-1270000J0D01*
G01*
X222210000Y-60235000D02*
X222210000Y-65830000D01*
X205860000Y-77830000D02*
X205860000Y-82830000D01*
X103430000Y-149970000D02*
X88430000Y-149970000D01*
X138430000Y-31490000D02*
X140970000Y-31490000D01*
X132430000Y-118830000D02*
X137080000Y-118830000D01*
X139770000Y-136170000D02*
X140970000Y-136170000D01*
X153670000Y-136170000D02*
X153670000Y-128235000D01*
X157410000Y-149970000D02*
G75*
G03*
X154870000Y-149970000I-1270000J0D01*
G01*
X103080000Y-101830000D02*
X103080000Y-106830000D01*
X103080000Y-65830000D02*
X98430000Y-65830000D01*
X218210000Y-99830000D02*
X222210000Y-99830000D01*
X191560000Y-38830000D02*
X188860000Y-38830000D01*
X139770000Y-146160000D02*
X139770000Y-136170000D01*
X196210000Y-82830000D02*
X191560000Y-82830000D01*
X98430000Y-84830000D02*
X103080000Y-84830000D01*
X105780000Y-116830000D02*
X105780000Y-111830000D01*
X222210000Y-48830000D02*
X222210000Y-34030000D01*
X171860000Y-133630000D02*
X171860000Y-128830000D01*
X191210000Y-149970000D02*
X191210000Y-145970000D01*
X188860000Y-128830000D02*
X191560000Y-128830000D01*
X72430000Y-99830000D02*
X72430000Y-84830000D01*
X171860000Y-82830000D02*
X167210000Y-82830000D01*
X213210000Y-118830000D02*
X213210000Y-116830000D01*
X140970000Y-128235000D02*
G75*
G03*
X138430000Y-128235000I-1270000J0D01*
G01*
X191560000Y-118830000D02*
X196210000Y-118830000D01*
X81430000Y-65830000D02*
X81430000Y-67830000D01*
X188860000Y-116830000D02*
X184210000Y-116830000D01*
X222210000Y-50830000D02*
X218210000Y-50830000D01*
X72430000Y-128235000D02*
X72430000Y-133630000D01*
X103080000Y-84830000D02*
X103080000Y-89830000D01*
X110430000Y-65830000D02*
X105780000Y-65830000D01*
X88780000Y-34030000D02*
X103080000Y-34030000D01*
X138430000Y-77235000D02*
X138430000Y-96377000D01*
X126590000Y-133630000D02*
G75*
G03*
X126590000Y-136170000I0J-1270000D01*
G01*
X82270000Y-136170000D02*
G75*
G03*
X82270000Y-133630000I0J1270000D01*
G01*
X98430000Y-50830000D02*
X103080000Y-50830000D01*
X224750000Y-60235000D02*
G75*
G03*
X222210000Y-60235000I-1270000J0D01*
G01*
X120430000Y-149970000D02*
X105430000Y-149970000D01*
X103080000Y-94830000D02*
X103080000Y-99830000D01*
X72430000Y-99830000D02*
X76430000Y-99830000D01*
X156210000Y-77235000D02*
G75*
G03*
X153670000Y-77235000I-1270000J0D01*
G01*
X105430000Y-136170000D02*
X120430000Y-136170000D01*
X72430000Y-65830000D02*
X76430000Y-65830000D01*
X98430000Y-67830000D02*
X103080000Y-67830000D01*
X222210000Y-34030000D02*
X212370000Y-34030000D01*
X122780000Y-111830000D02*
X120080000Y-111830000D01*
X222210000Y-124425000D02*
G75*
G03*
X224750000Y-124425000I1270000J0D01*
G01*
X188860000Y-72830000D02*
X191560000Y-72830000D01*
X222210000Y-84830000D02*
X218210000Y-84830000D01*
X184210000Y-116830000D02*
X184210000Y-118830000D01*
X150561000Y-107821000D02*
X156210000Y-96377000D01*
X196210000Y-67830000D02*
X196210000Y-65830000D01*
X120080000Y-116830000D02*
X115430000Y-116830000D01*
M02*
