%TF.GenerationSoftware,KiCad,Pcbnew,7.0.11+dfsg-1build4*%
%TF.CreationDate,2024-10-06T17:58:57+09:00*%
%TF.ProjectId,NotEnoughCompromises,4e6f7445-6e6f-4756-9768-436f6d70726f,rev?*%
%TF.SameCoordinates,Original*%
%TF.FileFunction,Soldermask,Bot*%
%TF.FilePolarity,Negative*%
%FSLAX46Y46*%
G04 Gerber Fmt 4.6, Leading zero omitted, Abs format (unit mm)*
G04 Created by KiCad (PCBNEW 7.0.11+dfsg-1build4) date 2024-10-06 17:58:57*
%MOMM*%
%LPD*%
G01*
G04 APERTURE LIST*
G04 Aperture macros list*
%AMRoundRect*
0 Rectangle with rounded corners*
0 $1 Rounding radius*
0 $2 $3 $4 $5 $6 $7 $8 $9 X,Y pos of 4 corners*
0 Add a 4 corners polygon primitive as box body*
4,1,4,$2,$3,$4,$5,$6,$7,$8,$9,$2,$3,0*
0 Add four circle primitives for the rounded corners*
1,1,$1+$1,$2,$3*
1,1,$1+$1,$4,$5*
1,1,$1+$1,$6,$7*
1,1,$1+$1,$8,$9*
0 Add four rect primitives between the rounded corners*
20,1,$1+$1,$2,$3,$4,$5,0*
20,1,$1+$1,$4,$5,$6,$7,0*
20,1,$1+$1,$6,$7,$8,$9,0*
20,1,$1+$1,$8,$9,$2,$3,0*%
G04 Aperture macros list end*
%ADD10C,1.900000*%
%ADD11C,3.300000*%
%ADD12O,1.000000X2.200000*%
%ADD13O,2.200000X1.000000*%
%ADD14C,1.524000*%
%ADD15RoundRect,0.250000X0.250000X0.750000X-0.250000X0.750000X-0.250000X-0.750000X0.250000X-0.750000X0*%
%ADD16R,1.000000X1.400000*%
%ADD17C,1.200000*%
%ADD18RoundRect,0.250000X-0.750000X0.250000X-0.750000X-0.250000X0.750000X-0.250000X0.750000X0.250000X0*%
%ADD19R,1.400000X1.000000*%
%ADD20RoundRect,0.250000X0.750000X-0.250000X0.750000X0.250000X-0.750000X0.250000X-0.750000X-0.250000X0*%
G04 APERTURE END LIST*
D10*
%TO.C,SW6*%
X112930000Y-52830000D03*
D11*
X112930000Y-58330000D03*
D10*
X112930000Y-63830000D03*
D12*
X116730000Y-63330000D03*
X118830000Y-58330000D03*
%TD*%
D10*
%TO.C,SW38*%
X198710000Y-114830000D03*
D11*
X198710000Y-109330000D03*
D10*
X198710000Y-103830000D03*
D12*
X194910000Y-104330000D03*
X192810000Y-109330000D03*
%TD*%
D10*
%TO.C,SW1*%
X129930000Y-46830000D03*
D11*
X129930000Y-41330000D03*
D10*
X129930000Y-35830000D03*
D12*
X126130000Y-36330000D03*
X124030000Y-41330000D03*
%TD*%
D10*
%TO.C,SW23*%
X107430000Y-143470000D03*
D11*
X112930000Y-143470000D03*
D10*
X118430000Y-143470000D03*
D13*
X117930000Y-139670000D03*
X112930000Y-137570000D03*
%TD*%
D10*
%TO.C,SW13*%
X73430000Y-143470000D03*
D11*
X78930000Y-143470000D03*
D10*
X84430000Y-143470000D03*
D13*
X83930000Y-139670000D03*
X78930000Y-137570000D03*
%TD*%
D10*
%TO.C,SW18*%
X90430000Y-143470000D03*
D11*
X95930000Y-143470000D03*
D10*
X101430000Y-143470000D03*
D13*
X100930000Y-139670000D03*
X95930000Y-137570000D03*
%TD*%
D10*
%TO.C,SW17*%
X78930000Y-86830000D03*
D11*
X78930000Y-92330000D03*
D10*
X78930000Y-97830000D03*
D12*
X82730000Y-97330000D03*
X84830000Y-92330000D03*
%TD*%
D10*
%TO.C,SW34*%
X215710000Y-131830000D03*
D11*
X215710000Y-126330000D03*
D10*
X215710000Y-120830000D03*
D12*
X211910000Y-121330000D03*
X209810000Y-126330000D03*
%TD*%
D10*
%TO.C,SW43*%
X198710000Y-97830000D03*
D11*
X198710000Y-92330000D03*
D10*
X198710000Y-86830000D03*
D12*
X194910000Y-87330000D03*
X192810000Y-92330000D03*
%TD*%
D10*
%TO.C,SW22*%
X78930000Y-103830000D03*
D11*
X78930000Y-109330000D03*
D10*
X78930000Y-114830000D03*
D12*
X82730000Y-114330000D03*
X84830000Y-109330000D03*
%TD*%
D10*
%TO.C,SW14*%
X129930000Y-97830000D03*
D11*
X129930000Y-92330000D03*
D10*
X129930000Y-86830000D03*
D12*
X126130000Y-87330000D03*
X124030000Y-92330000D03*
%TD*%
D10*
%TO.C,SW53*%
X198710000Y-63830000D03*
D11*
X198710000Y-58330000D03*
D10*
X198710000Y-52830000D03*
D12*
X194910000Y-53330000D03*
X192810000Y-58330000D03*
%TD*%
D10*
%TO.C,SW31*%
X164710000Y-120830000D03*
D11*
X164710000Y-126330000D03*
D10*
X164710000Y-131830000D03*
D12*
X168510000Y-131330000D03*
X170610000Y-126330000D03*
%TD*%
D10*
%TO.C,SW36*%
X164710000Y-103830000D03*
D11*
X164710000Y-109330000D03*
D10*
X164710000Y-114830000D03*
D12*
X168510000Y-114330000D03*
X170610000Y-109330000D03*
%TD*%
D10*
%TO.C,SW55*%
X164710000Y-35830000D03*
D11*
X164710000Y-41330000D03*
D10*
X164710000Y-46830000D03*
D12*
X168510000Y-46330000D03*
X170610000Y-41330000D03*
%TD*%
D14*
%TO.C,SW30*%
X157480000Y-76342000D03*
X157480000Y-74318000D03*
%TD*%
D10*
%TO.C,SW39*%
X215710000Y-114830000D03*
D11*
X215710000Y-109330000D03*
D10*
X215710000Y-103830000D03*
D12*
X211910000Y-104330000D03*
X209810000Y-109330000D03*
%TD*%
D10*
%TO.C,SW37*%
X181710000Y-114830000D03*
D11*
X181710000Y-109330000D03*
D10*
X181710000Y-103830000D03*
D12*
X177910000Y-104330000D03*
X175810000Y-109330000D03*
%TD*%
D10*
%TO.C,SW8*%
X78930000Y-52830000D03*
D11*
X78930000Y-58330000D03*
D10*
X78930000Y-63830000D03*
D12*
X82730000Y-63330000D03*
X84830000Y-58330000D03*
%TD*%
D10*
%TO.C,SW20*%
X112930000Y-103830000D03*
D11*
X112930000Y-109330000D03*
D10*
X112930000Y-114830000D03*
D12*
X116730000Y-114330000D03*
X118830000Y-109330000D03*
%TD*%
D10*
%TO.C,SW32*%
X181710000Y-131830000D03*
D11*
X181710000Y-126330000D03*
D10*
X181710000Y-120830000D03*
D12*
X177910000Y-121330000D03*
X175810000Y-126330000D03*
%TD*%
D10*
%TO.C,SW25*%
X129930000Y-131830000D03*
D11*
X129930000Y-126330000D03*
D10*
X129930000Y-120830000D03*
D12*
X126130000Y-121330000D03*
X124030000Y-126330000D03*
%TD*%
D10*
%TO.C,SW54*%
X215710000Y-63830000D03*
D11*
X215710000Y-58330000D03*
D10*
X215710000Y-52830000D03*
D12*
X211910000Y-53330000D03*
X209810000Y-58330000D03*
%TD*%
D10*
%TO.C,SW12*%
X78930000Y-69830000D03*
D11*
X78930000Y-75330000D03*
D10*
X78930000Y-80830000D03*
D12*
X82730000Y-80330000D03*
X84830000Y-75330000D03*
%TD*%
D10*
%TO.C,SW26*%
X112930000Y-120830000D03*
D11*
X112930000Y-126330000D03*
D10*
X112930000Y-131830000D03*
D12*
X116730000Y-131330000D03*
X118830000Y-126330000D03*
%TD*%
D10*
%TO.C,SW58*%
X215710000Y-46830000D03*
D11*
X215710000Y-41330000D03*
D10*
X215710000Y-35830000D03*
D12*
X211910000Y-36330000D03*
X209810000Y-41330000D03*
%TD*%
D10*
%TO.C,SW56*%
X181710000Y-46830000D03*
D11*
X181710000Y-41330000D03*
D10*
X181710000Y-35830000D03*
D12*
X177910000Y-36330000D03*
X175810000Y-41330000D03*
%TD*%
D10*
%TO.C,SW47*%
X181710000Y-80830000D03*
D11*
X181710000Y-75330000D03*
D10*
X181710000Y-69830000D03*
D12*
X177910000Y-70330000D03*
X175810000Y-75330000D03*
%TD*%
D10*
%TO.C,SW9*%
X129930000Y-80830000D03*
D11*
X129930000Y-75330000D03*
D10*
X129930000Y-69830000D03*
D12*
X126130000Y-70330000D03*
X124030000Y-75330000D03*
%TD*%
D10*
%TO.C,SW4*%
X78930000Y-35830000D03*
D11*
X78930000Y-41330000D03*
D10*
X78930000Y-46830000D03*
D12*
X82730000Y-46330000D03*
X84830000Y-41330000D03*
%TD*%
D10*
%TO.C,SW45*%
X193210000Y-143470000D03*
D11*
X198710000Y-143470000D03*
D10*
X204210000Y-143470000D03*
D13*
X203710000Y-139670000D03*
X198710000Y-137570000D03*
%TD*%
D10*
%TO.C,SW40*%
X176210000Y-143470000D03*
D11*
X181710000Y-143470000D03*
D10*
X187210000Y-143470000D03*
D13*
X186710000Y-139670000D03*
X181710000Y-137570000D03*
%TD*%
D10*
%TO.C,SW15*%
X112930000Y-86830000D03*
D11*
X112930000Y-92330000D03*
D10*
X112930000Y-97830000D03*
D12*
X116730000Y-97330000D03*
X118830000Y-92330000D03*
%TD*%
D10*
%TO.C,SW51*%
X164710000Y-52830000D03*
D11*
X164710000Y-58330000D03*
D10*
X164710000Y-63830000D03*
D12*
X168510000Y-63330000D03*
X170610000Y-58330000D03*
%TD*%
D10*
%TO.C,SW33*%
X198710000Y-131830000D03*
D11*
X198710000Y-126330000D03*
D10*
X198710000Y-120830000D03*
D12*
X194910000Y-121330000D03*
X192810000Y-126330000D03*
%TD*%
D10*
%TO.C,SW48*%
X198710000Y-80830000D03*
D11*
X198710000Y-75330000D03*
D10*
X198710000Y-69830000D03*
D12*
X194910000Y-70330000D03*
X192810000Y-75330000D03*
%TD*%
D10*
%TO.C,SW16*%
X95930000Y-86830000D03*
D11*
X95930000Y-92330000D03*
D10*
X95930000Y-97830000D03*
D12*
X99730000Y-97330000D03*
X101830000Y-92330000D03*
%TD*%
D10*
%TO.C,SW46*%
X164710000Y-69830000D03*
D11*
X164710000Y-75330000D03*
D10*
X164710000Y-80830000D03*
D12*
X168510000Y-80330000D03*
X170610000Y-75330000D03*
%TD*%
D10*
%TO.C,SW2*%
X112930000Y-35830000D03*
D11*
X112930000Y-41330000D03*
D10*
X112930000Y-46830000D03*
D12*
X116730000Y-46330000D03*
X118830000Y-41330000D03*
%TD*%
D10*
%TO.C,SW28*%
X78930000Y-120830000D03*
D11*
X78930000Y-126330000D03*
D10*
X78930000Y-131830000D03*
D12*
X82730000Y-131330000D03*
X84830000Y-126330000D03*
%TD*%
D10*
%TO.C,SW49*%
X215710000Y-80830000D03*
D11*
X215710000Y-75330000D03*
D10*
X215710000Y-69830000D03*
D12*
X211910000Y-70330000D03*
X209810000Y-75330000D03*
%TD*%
D10*
%TO.C,SW42*%
X181710000Y-97830000D03*
D11*
X181710000Y-92330000D03*
D10*
X181710000Y-86830000D03*
D12*
X177910000Y-87330000D03*
X175810000Y-92330000D03*
%TD*%
D10*
%TO.C,SW11*%
X95930000Y-69830000D03*
D11*
X95930000Y-75330000D03*
D10*
X95930000Y-80830000D03*
D12*
X99730000Y-80330000D03*
X101830000Y-75330000D03*
%TD*%
D10*
%TO.C,SW44*%
X215710000Y-97830000D03*
D11*
X215710000Y-92330000D03*
D10*
X215710000Y-86830000D03*
D12*
X211910000Y-87330000D03*
X209810000Y-92330000D03*
%TD*%
D10*
%TO.C,SW10*%
X112930000Y-69830000D03*
D11*
X112930000Y-75330000D03*
D10*
X112930000Y-80830000D03*
D12*
X116730000Y-80330000D03*
X118830000Y-75330000D03*
%TD*%
D10*
%TO.C,SW29*%
X124430000Y-143470000D03*
D11*
X129930000Y-143470000D03*
D10*
X135430000Y-143470000D03*
D13*
X134930000Y-139670000D03*
X129930000Y-137570000D03*
%TD*%
D10*
%TO.C,SW52*%
X181710000Y-63830000D03*
D11*
X181710000Y-58330000D03*
D10*
X181710000Y-52830000D03*
D12*
X177910000Y-53330000D03*
X175810000Y-58330000D03*
%TD*%
D14*
%TO.C,SW24*%
X137160000Y-76342000D03*
X137160000Y-74318000D03*
%TD*%
D10*
%TO.C,SW57*%
X198710000Y-46830000D03*
D11*
X198710000Y-41330000D03*
D10*
X198710000Y-35830000D03*
D12*
X194910000Y-36330000D03*
X192810000Y-41330000D03*
%TD*%
D10*
%TO.C,SW41*%
X164710000Y-86830000D03*
D11*
X164710000Y-92330000D03*
D10*
X164710000Y-97830000D03*
D12*
X168510000Y-97330000D03*
X170610000Y-92330000D03*
%TD*%
D10*
%TO.C,SW27*%
X95930000Y-120830000D03*
D11*
X95930000Y-126330000D03*
D10*
X95930000Y-131830000D03*
D12*
X99730000Y-131330000D03*
X101830000Y-126330000D03*
%TD*%
D10*
%TO.C,SW3*%
X95930000Y-35830000D03*
D11*
X95930000Y-41330000D03*
D10*
X95930000Y-46830000D03*
D12*
X99730000Y-46330000D03*
X101830000Y-41330000D03*
%TD*%
D10*
%TO.C,SW5*%
X129930000Y-63830000D03*
D11*
X129930000Y-58330000D03*
D10*
X129930000Y-52830000D03*
D12*
X126130000Y-53330000D03*
X124030000Y-58330000D03*
%TD*%
D10*
%TO.C,SW7*%
X95930000Y-52830000D03*
D11*
X95930000Y-58330000D03*
D10*
X95930000Y-63830000D03*
D12*
X99730000Y-63330000D03*
X101830000Y-58330000D03*
%TD*%
D10*
%TO.C,SW19*%
X129930000Y-114830000D03*
D11*
X129930000Y-109330000D03*
D10*
X129930000Y-103830000D03*
D12*
X126130000Y-104330000D03*
X124030000Y-109330000D03*
%TD*%
D10*
%TO.C,SW21*%
X95930000Y-103830000D03*
D11*
X95930000Y-109330000D03*
D10*
X95930000Y-114830000D03*
D12*
X99730000Y-114330000D03*
X101830000Y-109330000D03*
%TD*%
D10*
%TO.C,SW35*%
X159210000Y-143470000D03*
D11*
X164710000Y-143470000D03*
D10*
X170210000Y-143470000D03*
D13*
X169710000Y-139670000D03*
X164710000Y-137570000D03*
%TD*%
D10*
%TO.C,SW50*%
X210210000Y-143470000D03*
D11*
X215710000Y-143470000D03*
D10*
X221210000Y-143470000D03*
D13*
X220710000Y-139670000D03*
X215710000Y-137570000D03*
%TD*%
D15*
%TO.C,J4*%
X72130000Y-148970000D03*
%TD*%
D16*
%TO.C,D20*%
X109530000Y-107555000D03*
X109530000Y-111105000D03*
%TD*%
%TO.C,D22*%
X75530000Y-107555000D03*
X75530000Y-111105000D03*
%TD*%
%TO.C,D3*%
X92530000Y-39555000D03*
X92530000Y-43105000D03*
%TD*%
%TO.C,D17*%
X75530000Y-90555000D03*
X75530000Y-94105000D03*
%TD*%
%TO.C,D2*%
X109530000Y-39555000D03*
X109530000Y-43105000D03*
%TD*%
%TO.C,D6*%
X109530000Y-56555000D03*
X109530000Y-60105000D03*
%TD*%
D17*
%TO.C,J16*%
X157372248Y-101707960D03*
X154273926Y-107984934D03*
%TD*%
D16*
%TO.C,D27*%
X75530000Y-124555000D03*
X75530000Y-128105000D03*
%TD*%
%TO.C,D12*%
X75530000Y-73555000D03*
X75530000Y-77105000D03*
%TD*%
%TO.C,D10*%
X109530000Y-73555000D03*
X109530000Y-77105000D03*
%TD*%
%TO.C,D37*%
X219110000Y-111105000D03*
X219110000Y-107555000D03*
%TD*%
D18*
%TO.C,J1*%
X137430000Y-133130000D03*
%TD*%
D15*
%TO.C,J14*%
X221710000Y-35030000D03*
%TD*%
D16*
%TO.C,D42*%
X219110000Y-94105000D03*
X219110000Y-90555000D03*
%TD*%
%TO.C,D51*%
X202110000Y-60105000D03*
X202110000Y-56555000D03*
%TD*%
%TO.C,D5*%
X133330000Y-60105000D03*
X133330000Y-56555000D03*
%TD*%
%TO.C,D8*%
X75530000Y-56555000D03*
X75530000Y-60105000D03*
%TD*%
%TO.C,D31*%
X202110000Y-128105000D03*
X202110000Y-124555000D03*
%TD*%
%TO.C,D34*%
X161310000Y-107555000D03*
X161310000Y-111105000D03*
%TD*%
D19*
%TO.C,D13*%
X77155000Y-146870000D03*
X80705000Y-146870000D03*
%TD*%
D16*
%TO.C,D11*%
X92530000Y-73555000D03*
X92530000Y-77105000D03*
%TD*%
%TO.C,D44*%
X161310000Y-73555000D03*
X161310000Y-77105000D03*
%TD*%
%TO.C,D15*%
X109530000Y-90555000D03*
X109530000Y-94105000D03*
%TD*%
%TO.C,D1*%
X133330000Y-43105000D03*
X133330000Y-39555000D03*
%TD*%
D19*
%TO.C,D28*%
X128155000Y-146870000D03*
X131705000Y-146870000D03*
%TD*%
D16*
%TO.C,D47*%
X219110000Y-77105000D03*
X219110000Y-73555000D03*
%TD*%
D20*
%TO.C,J25*%
X157210000Y-133130000D03*
%TD*%
D16*
%TO.C,D30*%
X185110000Y-128105000D03*
X185110000Y-124555000D03*
%TD*%
%TO.C,D50*%
X185110000Y-60105000D03*
X185110000Y-56555000D03*
%TD*%
D20*
%TO.C,J26*%
X158410000Y-136670000D03*
%TD*%
D16*
%TO.C,D16*%
X92530000Y-90555000D03*
X92530000Y-94105000D03*
%TD*%
%TO.C,D41*%
X202110000Y-94105000D03*
X202110000Y-90555000D03*
%TD*%
%TO.C,D9*%
X133330000Y-77105000D03*
X133330000Y-73555000D03*
%TD*%
D18*
%TO.C,J3*%
X136230000Y-136670000D03*
%TD*%
D16*
%TO.C,D36*%
X202110000Y-111105000D03*
X202110000Y-107555000D03*
%TD*%
%TO.C,D39*%
X161310000Y-90555000D03*
X161310000Y-94105000D03*
%TD*%
D15*
%TO.C,J2*%
X72930000Y-35030000D03*
%TD*%
D16*
%TO.C,D53*%
X161310000Y-39555000D03*
X161310000Y-43105000D03*
%TD*%
%TO.C,D4*%
X75530000Y-39555000D03*
X75530000Y-43105000D03*
%TD*%
%TO.C,D35*%
X185110000Y-111105000D03*
X185110000Y-107555000D03*
%TD*%
%TO.C,D49*%
X161310000Y-56555000D03*
X161310000Y-60105000D03*
%TD*%
%TO.C,D54*%
X185110000Y-43105000D03*
X185110000Y-39555000D03*
%TD*%
D17*
%TO.C,J11*%
X137267619Y-101708026D03*
X140366050Y-107984946D03*
%TD*%
D16*
%TO.C,D26*%
X92530000Y-124555000D03*
X92530000Y-128105000D03*
%TD*%
%TO.C,D32*%
X219110000Y-128105000D03*
X219110000Y-124555000D03*
%TD*%
D19*
%TO.C,D23*%
X111155000Y-146870000D03*
X114705000Y-146870000D03*
%TD*%
D16*
%TO.C,D29*%
X161310000Y-124555000D03*
X161310000Y-128105000D03*
%TD*%
D19*
%TO.C,D43*%
X196935000Y-146870000D03*
X200485000Y-146870000D03*
%TD*%
D16*
%TO.C,D55*%
X202110000Y-43105000D03*
X202110000Y-39555000D03*
%TD*%
%TO.C,D46*%
X202110000Y-77105000D03*
X202110000Y-73555000D03*
%TD*%
%TO.C,D14*%
X133330000Y-94105000D03*
X133330000Y-90555000D03*
%TD*%
%TO.C,D45*%
X185110000Y-77105000D03*
X185110000Y-73555000D03*
%TD*%
D15*
%TO.C,J15*%
X222510000Y-148970000D03*
%TD*%
D16*
%TO.C,D52*%
X219110000Y-60105000D03*
X219110000Y-56555000D03*
%TD*%
D19*
%TO.C,D38*%
X179935000Y-146870000D03*
X183485000Y-146870000D03*
%TD*%
%TO.C,D48*%
X213935000Y-146870000D03*
X217485000Y-146870000D03*
%TD*%
D16*
%TO.C,D56*%
X219110000Y-43105000D03*
X219110000Y-39555000D03*
%TD*%
%TO.C,D19*%
X133330000Y-111105000D03*
X133330000Y-107555000D03*
%TD*%
D19*
%TO.C,D33*%
X162935000Y-146870000D03*
X166485000Y-146870000D03*
%TD*%
D16*
%TO.C,D7*%
X92530000Y-56555000D03*
X92530000Y-60105000D03*
%TD*%
D19*
%TO.C,D18*%
X94155000Y-146870000D03*
X97705000Y-146870000D03*
%TD*%
D16*
%TO.C,D24*%
X133330000Y-128105000D03*
X133330000Y-124555000D03*
%TD*%
%TO.C,D21*%
X92530000Y-107555000D03*
X92530000Y-111105000D03*
%TD*%
%TO.C,D40*%
X185110000Y-94105000D03*
X185110000Y-90555000D03*
%TD*%
%TO.C,D25*%
X109530000Y-124555000D03*
X109530000Y-128105000D03*
%TD*%
M02*
