M48
; DRILL file {KiCad 7.0.11+dfsg-1build4} date Sun 06 Oct 2024 05:59:39 PM JST
; FORMAT={-:-/ absolute / inch / decimal}
; #@! TF.CreationDate,2024-10-06T17:59:39+09:00
; #@! TF.GenerationSoftware,Kicad,Pcbnew,7.0.11+dfsg-1build4
; #@! TF.FileFunction,NonPlated,1,2,NPTH
FMAT,2
INCH
; #@! TA.AperFunction,NonPlated,NPTH,ComponentDrill
T1C0.0472
; #@! TA.AperFunction,NonPlated,NPTH,ComponentDrill
T2C0.0748
; #@! TA.AperFunction,NonPlated,NPTH,ComponentDrill
T3C0.1299
%
G90
G05
T1
X5.4042Y-4.0043
X5.5262Y-4.2514
X6.0738Y-4.2514
X6.1958Y-4.0043
T2
X2.8909Y-5.6484
X3.1075Y-1.4106
X3.1075Y-1.8437
X3.1075Y-2.0799
X3.1075Y-2.513
X3.1075Y-2.7492
X3.1075Y-3.1823
X3.1075Y-3.4185
X3.1075Y-3.8516
X3.1075Y-4.0878
X3.1075Y-4.5209
X3.1075Y-4.7571
X3.1075Y-5.1902
X3.324Y-5.6484
X3.5602Y-5.6484
X3.7768Y-1.4106
X3.7768Y-1.8437
X3.7768Y-2.0799
X3.7768Y-2.513
X3.7768Y-2.7492
X3.7768Y-3.1823
X3.7768Y-3.4185
X3.7768Y-3.8516
X3.7768Y-4.0878
X3.7768Y-4.5209
X3.7768Y-4.7571
X3.7768Y-5.1902
X3.9933Y-5.6484
X4.2295Y-5.6484
X4.4461Y-1.4106
X4.4461Y-1.8437
X4.4461Y-2.0799
X4.4461Y-2.513
X4.4461Y-2.7492
X4.4461Y-3.1823
X4.4461Y-3.4185
X4.4461Y-3.8516
X4.4461Y-4.0878
X4.4461Y-4.5209
X4.4461Y-4.7571
X4.4461Y-5.1902
X4.6626Y-5.6484
X4.8988Y-5.6484
X5.1154Y-1.4106
X5.1154Y-1.8437
X5.1154Y-2.0799
X5.1154Y-2.513
X5.1154Y-2.7492
X5.1154Y-3.1823
X5.1154Y-3.4185
X5.1154Y-3.8516
X5.1154Y-4.0878
X5.1154Y-4.5209
X5.1154Y-4.7571
X5.1154Y-5.1902
X5.3319Y-5.6484
X6.2681Y-5.6484
X6.4846Y-1.4106
X6.4846Y-1.8437
X6.4846Y-2.0799
X6.4846Y-2.513
X6.4846Y-2.7492
X6.4846Y-3.1823
X6.4846Y-3.4185
X6.4846Y-3.8516
X6.4846Y-4.0878
X6.4846Y-4.5209
X6.4846Y-4.7571
X6.4846Y-5.1902
X6.7012Y-5.6484
X6.9374Y-5.6484
X7.1539Y-1.4106
X7.1539Y-1.8437
X7.1539Y-2.0799
X7.1539Y-2.513
X7.1539Y-2.7492
X7.1539Y-3.1823
X7.1539Y-3.4185
X7.1539Y-3.8516
X7.1539Y-4.0878
X7.1539Y-4.5209
X7.1539Y-4.7571
X7.1539Y-5.1902
X7.3705Y-5.6484
X7.6067Y-5.6484
X7.8232Y-1.4106
X7.8232Y-1.8437
X7.8232Y-2.0799
X7.8232Y-2.513
X7.8232Y-2.7492
X7.8232Y-3.1823
X7.8232Y-3.4185
X7.8232Y-3.8516
X7.8232Y-4.0878
X7.8232Y-4.5209
X7.8232Y-4.7571
X7.8232Y-5.1902
X8.0398Y-5.6484
X8.276Y-5.6484
X8.4925Y-1.4106
X8.4925Y-1.8437
X8.4925Y-2.0799
X8.4925Y-2.513
X8.4925Y-2.7492
X8.4925Y-3.1823
X8.4925Y-3.4185
X8.4925Y-3.8516
X8.4925Y-4.0878
X8.4925Y-4.5209
X8.4925Y-4.7571
X8.4925Y-5.1902
X8.7091Y-5.6484
T3
X3.1075Y-1.6272
X3.1075Y-2.2965
X3.1075Y-2.9657
X3.1075Y-3.635
X3.1075Y-4.3043
X3.1075Y-4.9736
X3.1075Y-5.6484
X3.7768Y-1.6272
X3.7768Y-2.2965
X3.7768Y-2.9657
X3.7768Y-3.635
X3.7768Y-4.3043
X3.7768Y-4.9736
X3.7768Y-5.6484
X4.4461Y-1.6272
X4.4461Y-2.2965
X4.4461Y-2.9657
X4.4461Y-3.635
X4.4461Y-4.3043
X4.4461Y-4.9736
X4.4461Y-5.6484
X5.1154Y-1.6272
X5.1154Y-2.2965
X5.1154Y-2.9657
X5.1154Y-3.635
X5.1154Y-4.3043
X5.1154Y-4.9736
X5.1154Y-5.6484
X6.4846Y-1.6272
X6.4846Y-2.2965
X6.4846Y-2.9657
X6.4846Y-3.635
X6.4846Y-4.3043
X6.4846Y-4.9736
X6.4846Y-5.6484
X7.1539Y-1.6272
X7.1539Y-2.2965
X7.1539Y-2.9657
X7.1539Y-3.635
X7.1539Y-4.3043
X7.1539Y-4.9736
X7.1539Y-5.6484
X7.8232Y-1.6272
X7.8232Y-2.2965
X7.8232Y-2.9657
X7.8232Y-3.635
X7.8232Y-4.3043
X7.8232Y-4.9736
X7.8232Y-5.6484
X8.4925Y-1.6272
X8.4925Y-2.2965
X8.4925Y-2.9657
X8.4925Y-3.635
X8.4925Y-4.3043
X8.4925Y-4.9736
X8.4925Y-5.6484
M30
