M48
; DRILL file {KiCad 7.0.11+dfsg-1build4} date Sun 06 Oct 2024 05:59:39 PM JST
; FORMAT={-:-/ absolute / inch / decimal}
; #@! TF.CreationDate,2024-10-06T17:59:39+09:00
; #@! TF.GenerationSoftware,Kicad,Pcbnew,7.0.11+dfsg-1build4
; #@! TF.FileFunction,Plated,1,2,PTH
FMAT,2
INCH
; #@! TA.AperFunction,Plated,PTH,ComponentDrill
T1C0.0118
; #@! TA.AperFunction,Plated,PTH,ViaDrill
T2C0.0157
; #@! TA.AperFunction,Plated,PTH,ComponentDrill
T3C0.0300
; #@! TA.AperFunction,Plated,PTH,ComponentDrill
T4C0.0320
; #@! TA.AperFunction,Plated,PTH,ComponentDrill
T5C0.0394
%
G90
G05
T2
X2.9075Y-5.4484
X3.0075Y-1.4272
X3.3075Y-1.4272
X3.3075Y-2.0965
X3.3075Y-2.7657
X3.3075Y-3.435
X3.3075Y-4.1043
X3.3075Y-4.7736
X3.5768Y-5.4484
X3.9768Y-1.4272
X3.9768Y-2.0965
X3.9768Y-2.7657
X3.9768Y-3.435
X3.9768Y-4.1043
X3.9768Y-4.7736
X4.2461Y-5.4484
X4.6461Y-1.4272
X4.6461Y-2.0965
X4.6461Y-2.7657
X4.6461Y-3.435
X4.6461Y-4.1043
X4.6461Y-4.7736
X4.9154Y-3.1657
X4.9154Y-3.835
X4.9154Y-4.5043
X4.9154Y-5.1736
X4.9154Y-5.4484
X4.9654Y-4.8736
X4.9654Y-5.0736
X5.0008Y-1.85
X5.0008Y-2.45
X5.0508Y-2.0
X5.2654Y-2.05
X5.3654Y-5.0736
X6.2346Y-5.1236
X6.2846Y-4.9736
X6.2846Y-5.7984
X6.3846Y-1.8
X6.3846Y-1.95
X6.3846Y-2.05
X6.3846Y-2.55
X6.5846Y-2.05
X6.6846Y-2.15
X6.6846Y-2.4
X6.6846Y-2.7657
X6.6846Y-3.435
X6.6846Y-4.1043
X6.6846Y-4.7736
X6.6846Y-5.3984
X6.8992Y-1.9
X6.9539Y-1.8272
X6.9539Y-2.4965
X6.9539Y-3.1657
X6.9539Y-3.835
X6.9539Y-4.5043
X6.9539Y-5.1736
X6.9539Y-5.4484
X7.6232Y-1.8272
X7.6232Y-2.4965
X7.6232Y-3.1657
X7.6232Y-3.835
X7.6232Y-4.5043
X7.6232Y-5.1736
X7.6232Y-5.4484
X7.9232Y-1.8272
X8.2925Y-1.5272
X8.2925Y-1.8272
X8.2925Y-2.4965
X8.2925Y-3.1657
X8.2925Y-3.835
X8.2925Y-4.5043
X8.2925Y-5.1736
X8.2925Y-5.4484
X8.3925Y-1.8272
X8.5925Y-1.8272
X8.6925Y-1.6272
T3
X5.4Y-2.9259
X5.4Y-3.0056
X6.2Y-2.9259
X6.2Y-3.0056
T4
X4.8008Y-1.45
X4.8008Y-1.55
X4.8008Y-1.65
X4.8008Y-1.75
X4.8008Y-1.85
X4.8008Y-1.95
X4.8008Y-2.05
X4.8008Y-2.15
X4.8008Y-2.25
X4.8008Y-2.35
X4.8008Y-2.45
X4.8008Y-2.55
X5.4Y-1.45
X5.4Y-1.55
X5.4Y-1.65
X5.4Y-1.75
X5.4Y-1.85
X5.4Y-1.95
X5.4Y-2.05
X5.4Y-2.15
X5.4Y-2.25
X5.4Y-2.35
X5.4Y-2.45
X5.4Y-2.55
X6.2Y-1.45
X6.2Y-1.55
X6.2Y-1.65
X6.2Y-1.75
X6.2Y-1.85
X6.2Y-1.95
X6.2Y-2.05
X6.2Y-2.15
X6.2Y-2.25
X6.2Y-2.35
X6.2Y-2.45
X6.2Y-2.55
X6.7992Y-1.45
X6.7992Y-1.55
X6.7992Y-1.65
X6.7992Y-1.75
X6.7992Y-1.85
X6.7992Y-1.95
X6.7992Y-2.05
X6.7992Y-2.15
X6.7992Y-2.25
X6.7992Y-2.35
X6.7992Y-2.45
X6.7992Y-2.55
T1
G00X3.0937Y-5.4161
M15
G01X3.1213Y-5.4161
M16
G05
G00X3.2571Y-1.8102
M15
G01X3.2571Y-1.8378
M16
G05
G00X3.2571Y-2.4795
M15
G01X3.2571Y-2.5071
M16
G05
G00X3.2571Y-3.1488
M15
G01X3.2571Y-3.1764
M16
G05
G00X3.2571Y-3.8181
M15
G01X3.2571Y-3.8457
M16
G05
G00X3.2571Y-4.4874
M15
G01X3.2571Y-4.515
M16
G05
G00X3.2571Y-5.1567
M15
G01X3.2571Y-5.1843
M16
G05
G00X3.2906Y-5.4988
M15
G01X3.3181Y-5.4988
M16
G05
G00X3.3398Y-1.6134
M15
G01X3.3398Y-1.6409
M16
G05
G00X3.3398Y-2.2827
M15
G01X3.3398Y-2.3102
M16
G05
G00X3.3398Y-2.952
M15
G01X3.3398Y-2.9795
M16
G05
G00X3.3398Y-3.6213
M15
G01X3.3398Y-3.6488
M16
G05
G00X3.3398Y-4.2906
M15
G01X3.3398Y-4.3181
M16
G05
G00X3.3398Y-4.9598
M15
G01X3.3398Y-4.9874
M16
G05
G00X3.763Y-5.4161
M15
G01X3.7906Y-5.4161
M16
G05
G00X3.9264Y-1.8102
M15
G01X3.9264Y-1.8378
M16
G05
G00X3.9264Y-2.4795
M15
G01X3.9264Y-2.5071
M16
G05
G00X3.9264Y-3.1488
M15
G01X3.9264Y-3.1764
M16
G05
G00X3.9264Y-3.8181
M15
G01X3.9264Y-3.8457
M16
G05
G00X3.9264Y-4.4874
M15
G01X3.9264Y-4.515
M16
G05
G00X3.9264Y-5.1567
M15
G01X3.9264Y-5.1843
M16
G05
G00X3.9598Y-5.4988
M15
G01X3.9874Y-5.4988
M16
G05
G00X4.0091Y-1.6134
M15
G01X4.0091Y-1.6409
M16
G05
G00X4.0091Y-2.2827
M15
G01X4.0091Y-2.3102
M16
G05
G00X4.0091Y-2.952
M15
G01X4.0091Y-2.9795
M16
G05
G00X4.0091Y-3.6213
M15
G01X4.0091Y-3.6488
M16
G05
G00X4.0091Y-4.2906
M15
G01X4.0091Y-4.3181
M16
G05
G00X4.0091Y-4.9598
M15
G01X4.0091Y-4.9874
M16
G05
G00X4.4323Y-5.4161
M15
G01X4.4598Y-5.4161
M16
G05
G00X4.5957Y-1.8102
M15
G01X4.5957Y-1.8378
M16
G05
G00X4.5957Y-2.4795
M15
G01X4.5957Y-2.5071
M16
G05
G00X4.5957Y-3.1488
M15
G01X4.5957Y-3.1764
M16
G05
G00X4.5957Y-3.8181
M15
G01X4.5957Y-3.8457
M16
G05
G00X4.5957Y-4.4874
M15
G01X4.5957Y-4.515
M16
G05
G00X4.5957Y-5.1567
M15
G01X4.5957Y-5.1843
M16
G05
G00X4.6291Y-5.4988
M15
G01X4.6567Y-5.4988
M16
G05
G00X4.6783Y-1.6134
M15
G01X4.6783Y-1.6409
M16
G05
G00X4.6783Y-2.2827
M15
G01X4.6783Y-2.3102
M16
G05
G00X4.6783Y-2.952
M15
G01X4.6783Y-2.9795
M16
G05
G00X4.6783Y-3.6213
M15
G01X4.6783Y-3.6488
M16
G05
G00X4.6783Y-4.2906
M15
G01X4.6783Y-4.3181
M16
G05
G00X4.6783Y-4.9598
M15
G01X4.6783Y-4.9874
M16
G05
G00X4.8831Y-1.6409
M15
G01X4.8831Y-1.6134
M16
G05
G00X4.8831Y-2.3102
M15
G01X4.8831Y-2.2827
M16
G05
G00X4.8831Y-2.9795
M15
G01X4.8831Y-2.952
M16
G05
G00X4.8831Y-3.6488
M15
G01X4.8831Y-3.6213
M16
G05
G00X4.8831Y-4.3181
M15
G01X4.8831Y-4.2906
M16
G05
G00X4.8831Y-4.9874
M15
G01X4.8831Y-4.9598
M16
G05
G00X4.9657Y-1.4441
M15
G01X4.9657Y-1.4165
M16
G05
G00X4.9657Y-2.1134
M15
G01X4.9657Y-2.0858
M16
G05
G00X4.9657Y-2.7827
M15
G01X4.9657Y-2.7551
M16
G05
G00X4.9657Y-3.452
M15
G01X4.9657Y-3.4244
M16
G05
G00X4.9657Y-4.1213
M15
G01X4.9657Y-4.0937
M16
G05
G00X4.9657Y-4.7906
M15
G01X4.9657Y-4.763
M16
G05
G00X5.1016Y-5.4161
M15
G01X5.1291Y-5.4161
M16
G05
G00X5.2984Y-5.4988
M15
G01X5.326Y-5.4988
M16
G05
G00X6.4709Y-5.4161
M15
G01X6.4984Y-5.4161
M16
G05
G00X6.6343Y-1.8102
M15
G01X6.6343Y-1.8378
M16
G05
G00X6.6343Y-2.4795
M15
G01X6.6343Y-2.5071
M16
G05
G00X6.6343Y-3.1488
M15
G01X6.6343Y-3.1764
M16
G05
G00X6.6343Y-3.8181
M15
G01X6.6343Y-3.8457
M16
G05
G00X6.6343Y-4.4874
M15
G01X6.6343Y-4.515
M16
G05
G00X6.6343Y-5.1567
M15
G01X6.6343Y-5.1843
M16
G05
G00X6.6677Y-5.4988
M15
G01X6.6953Y-5.4988
M16
G05
G00X6.7169Y-1.6134
M15
G01X6.7169Y-1.6409
M16
G05
G00X6.7169Y-2.2827
M15
G01X6.7169Y-2.3102
M16
G05
G00X6.7169Y-2.952
M15
G01X6.7169Y-2.9795
M16
G05
G00X6.7169Y-3.6213
M15
G01X6.7169Y-3.6488
M16
G05
G00X6.7169Y-4.2906
M15
G01X6.7169Y-4.3181
M16
G05
G00X6.7169Y-4.9598
M15
G01X6.7169Y-4.9874
M16
G05
G00X6.9217Y-1.6409
M15
G01X6.9217Y-1.6134
M16
G05
G00X6.9217Y-2.3102
M15
G01X6.9217Y-2.2827
M16
G05
G00X6.9217Y-2.9795
M15
G01X6.9217Y-2.952
M16
G05
G00X6.9217Y-3.6488
M15
G01X6.9217Y-3.6213
M16
G05
G00X6.9217Y-4.3181
M15
G01X6.9217Y-4.2906
M16
G05
G00X6.9217Y-4.9874
M15
G01X6.9217Y-4.9598
M16
G05
G00X7.0043Y-1.4441
M15
G01X7.0043Y-1.4165
M16
G05
G00X7.0043Y-2.1134
M15
G01X7.0043Y-2.0858
M16
G05
G00X7.0043Y-2.7827
M15
G01X7.0043Y-2.7551
M16
G05
G00X7.0043Y-3.452
M15
G01X7.0043Y-3.4244
M16
G05
G00X7.0043Y-4.1213
M15
G01X7.0043Y-4.0937
M16
G05
G00X7.0043Y-4.7906
M15
G01X7.0043Y-4.763
M16
G05
G00X7.1402Y-5.4161
M15
G01X7.1677Y-5.4161
M16
G05
G00X7.337Y-5.4988
M15
G01X7.3646Y-5.4988
M16
G05
G00X7.5909Y-1.6409
M15
G01X7.5909Y-1.6134
M16
G05
G00X7.5909Y-2.3102
M15
G01X7.5909Y-2.2827
M16
G05
G00X7.5909Y-2.9795
M15
G01X7.5909Y-2.952
M16
G05
G00X7.5909Y-3.6488
M15
G01X7.5909Y-3.6213
M16
G05
G00X7.5909Y-4.3181
M15
G01X7.5909Y-4.2906
M16
G05
G00X7.5909Y-4.9874
M15
G01X7.5909Y-4.9598
M16
G05
G00X7.6736Y-1.4441
M15
G01X7.6736Y-1.4165
M16
G05
G00X7.6736Y-2.1134
M15
G01X7.6736Y-2.0858
M16
G05
G00X7.6736Y-2.7827
M15
G01X7.6736Y-2.7551
M16
G05
G00X7.6736Y-3.452
M15
G01X7.6736Y-3.4244
M16
G05
G00X7.6736Y-4.1213
M15
G01X7.6736Y-4.0937
M16
G05
G00X7.6736Y-4.7906
M15
G01X7.6736Y-4.763
M16
G05
G00X7.8094Y-5.4161
M15
G01X7.837Y-5.4161
M16
G05
G00X8.0063Y-5.4988
M15
G01X8.0339Y-5.4988
M16
G05
G00X8.2602Y-1.6409
M15
G01X8.2602Y-1.6134
M16
G05
G00X8.2602Y-2.3102
M15
G01X8.2602Y-2.2827
M16
G05
G00X8.2602Y-2.9795
M15
G01X8.2602Y-2.952
M16
G05
G00X8.2602Y-3.6488
M15
G01X8.2602Y-3.6213
M16
G05
G00X8.2602Y-4.3181
M15
G01X8.2602Y-4.2906
M16
G05
G00X8.2602Y-4.9874
M15
G01X8.2602Y-4.9598
M16
G05
G00X8.3429Y-1.4441
M15
G01X8.3429Y-1.4165
M16
G05
G00X8.3429Y-2.1134
M15
G01X8.3429Y-2.0858
M16
G05
G00X8.3429Y-2.7827
M15
G01X8.3429Y-2.7551
M16
G05
G00X8.3429Y-3.452
M15
G01X8.3429Y-3.4244
M16
G05
G00X8.3429Y-4.1213
M15
G01X8.3429Y-4.0937
M16
G05
G00X8.3429Y-4.7906
M15
G01X8.3429Y-4.763
M16
G05
G00X8.4787Y-5.4161
M15
G01X8.5063Y-5.4161
M16
G05
G00X8.6756Y-5.4988
M15
G01X8.7031Y-5.4988
M16
G05
T5
G00X5.2682Y-3.9155
M15
G01X5.2769Y-3.9332
M16
G05
G00X5.4426Y-3.8953
M15
G01X5.4514Y-3.9129
M16
G05
G00X5.5124Y-4.0365
M15
G01X5.5211Y-4.0542
M16
G05
G00X5.5646Y-4.1424
M15
G01X5.5733Y-4.1601
M16
G05
G00X6.1835Y-3.8423
M15
G01X6.1748Y-3.86
M16
G05
G00X6.1836Y-4.2156
M15
G01X6.1749Y-4.2332
M16
G05
G00X6.2359Y-4.1097
M15
G01X6.2272Y-4.1273
M16
G05
G00X6.3056Y-3.9685
M15
G01X6.2969Y-3.9861
M16
G05
M30
